<svg width="221" height="53" xmlns="http://www.w3.org/2000/svg" xmlns:xlink="http://www.w3.org/1999/xlink">
 <!-- Generator: Sketch 3.8.2 (29753) - http://www.bohemiancoding.com/sketch -->
 <title>login_icons_tiny</title>
 <desc>Created with Sketch.</desc>
 <defs>
  <path id="path-1" d="m48,24c0,13.254 -10.7448,24 -24,24c-13.254,0 -24,-10.746 -24,-24c0,-13.2564 10.746,-24 24,-24c13.2552,0 24,10.7436 24,24l0,0z"/>
  <mask height="48" width="48" y="0" x="0" maskUnits="objectBoundingBox" maskContentUnits="userSpaceOnUse" id="mask-2">
   <use id="svg_1" xlink:href="#path-1"/>
  </mask>
  <path id="path-3" d="m48,24c0,13.254 -10.7448,24 -24,24c-13.254,0 -24,-10.746 -24,-24c0,-13.2564 10.746,-24 24,-24c13.2552,0 24,10.7436 24,24l0,0z"/>
  <mask height="48" width="48" y="0" x="0" maskUnits="objectBoundingBox" maskContentUnits="userSpaceOnUse" id="mask-4">
   <use id="svg_2" xlink:href="#path-3"/>
  </mask>
  <path id="path-5" d="m48,24c0,13.254 -10.7448,24 -24,24c-13.254,0 -24,-10.746 -24,-24c0,-13.2564 10.746,-24 24,-24c13.2552,0 24,10.7436 24,24l0,0z"/>
  <mask height="48" width="48" y="0" x="0" maskUnits="objectBoundingBox" maskContentUnits="userSpaceOnUse" id="mask-6">
   <use id="svg_3" xlink:href="#path-5"/>
  </mask>
  <path id="path-7" d="m48,24c0,13.254 -10.7448,24 -24,24c-13.254,0 -24,-10.746 -24,-24c0,-13.2564 10.746,-24 24,-24c13.2552,0 24,10.7436 24,24l0,0z"/>
  <mask height="48" width="48" y="0" x="0" maskUnits="objectBoundingBox" maskContentUnits="userSpaceOnUse" id="mask-8">
   <use id="svg_4" xlink:href="#path-7"/>
  </mask>
  <path id="path-9" d="m48,24c0,13.254 -10.7448,24 -24,24c-13.254,0 -24,-10.746 -24,-24c0,-13.2564 10.746,-24 24,-24c13.2552,0 24,10.7436 24,24l0,0z"/>
  <mask height="48" width="48" y="0" x="0" maskUnits="objectBoundingBox" maskContentUnits="userSpaceOnUse" id="mask-10">
   <use id="svg_5" xlink:href="#path-9"/>
  </mask>
 </defs>
 <g>
  <title>background</title>
  <rect fill="none" id="canvas_background" height="55" width="223" y="-1" x="-1"/>
 </g>
 <g>
  <title>Layer 1</title>
  <g fill-rule="evenodd" fill="none" id="slice">
   <g id="Desktop-HD">
    <g id="Group-8">
     <g id="Group-Copy">
      <path fill="#C90000" id="Fill-5-Copy-4" d="m50,25.891098c0,13.254 -10.7448,24 -24,24c-13.254,0 -24,-10.746 -24,-24c0,-13.2564 10.746,-24 24,-24c13.2552,0 24,10.7436 24,24l0,0z"/>
      <path fill="#FFFFFF" id="Fill-2" d="m40.0784,22.378898c-0.5556,0 -1.008,-0.43902 -1.008,-0.98341c0,-4.06361 -3.3888,-7.36976 -7.5564,-7.36976c-0.5556,0 -1.008,-0.44019 -1.008,-0.98341c0,-0.54205 0.4524,-0.98459 1.008,-0.98459c5.28,0 9.5748,4.19005 9.5748,9.33776c0,0.54439 -0.4524,0.98341 -1.0104,0.98341l0,0l0,0zm-8.964,-4.0437c1.8516,0 3.36,1.47161 3.36,3.27805c0,0.40624 -0.3396,0.73756 -0.756,0.73756c-0.42,0 -0.7584,-0.33132 -0.7584,-0.73756c0,-0.99278 -0.828,-1.80059 -1.8456,-1.80059c-0.4176,0 -0.756,-0.33015 -0.756,-0.7399c0,-0.40625 0.3384,-0.73756 0.756,-0.73756l0,0l0,0zm-0.0228,3.21249c1.2408,0.90731 -0.0888,3.73112 -0.0888,3.73112c0,0 4.272,-0.21659 5.2944,2.256c2.1036,5.08214 -6.6732,11.45795 -14.8164,11.45795c-8.1396,0 -11.1672,-4.12215 -11.1672,-7.72449c0,-3.60234 1.6464,-6.59473 4.8948,-9.93834c3.0852,-3.17268 5.7468,-4.43942 7.4304,-3.99103c1.4688,0.38869 0.9324,3.64566 0.978,5.46732c2.8488,-1.77834 6.2304,-2.17053 7.4748,-1.25853l0,0l0,0zm-9.378,4.14673c-5.3676,0.51512 -9.4572,3.54966 -9.1296,6.77502c0.3264,3.22771 4.9416,5.424 10.3116,4.90537c5.3676,-0.51512 9.4548,-3.54966 9.1296,-6.77503c-0.3264,-3.22536 -4.944,-5.42166 -10.3116,-4.90536l0,0l0,0zm1.5096,9.76156c-2.2596,1.33112 -5.0148,0.92253 -6.1524,-0.91434c-1.14,-1.83688 -0.2292,-4.40547 2.0304,-5.73776c2.2596,-1.33229 5.0148,-0.92254 6.1524,0.91434c1.1376,1.83688 0.2304,4.40547 -2.0304,5.73776l0,0l0,0zm-1.5408,-3.63278c-0.3768,-0.60995 -1.3008,-0.74225 -2.064,-0.29386c-0.7608,0.44839 -1.0704,1.30771 -0.6912,1.92c0.3792,0.61113 1.302,0.74108 2.064,0.29269c0.762,-0.44722 1.0704,-1.30771 0.6912,-1.91883l0,0l0,0zm14.0436,-10.51551c0,-2.31103 -1.9296,-4.19357 -4.2996,-4.19357c-0.4884,0 -0.8832,-0.38517 -0.8832,-0.85931c0,-0.47649 0.3948,-0.86283 0.8832,-0.86283c3.3444,0 6.066,2.65405 6.066,5.91571c0,0.47765 -0.3972,0.86282 -0.8832,0.86282c-0.4884,0 -0.8832,-0.38517 -0.8832,-0.86282l0,0l0,0z"/>
     </g>
     <g id="Group-2-Copy-3">
      <path fill="#2A9CD5" id="Fill-5-Copy-3" d="m130,25.891098c0,13.254 -10.7448,24 -24,24c-13.254,0 -24,-10.746 -24,-24c0,-13.2564 10.746,-24 24,-24c13.2552,0 24,10.7436 24,24l0,0z"/>
      <path fill="#FFFFFF" id="Fill-4" d="m102.02634,37.374808l-1.44117,0c-1.45756,-0.14751 -3.46888,-0.24937 -4.09171,-1.26673c-0.21541,-0.35239 -0.20253,-1.13327 0.01991,-1.52898c0.33014,-0.5842 1.08175,-0.74693 1.95395,-0.86751c-0.85932,-0.67903 -1.65659,-1.42244 -2.11786,-2.51356c-0.07375,-0.17561 -0.15687,-0.36059 -0.22595,-0.54439c-0.07141,-0.18615 -0.09834,-0.38283 -0.20722,-0.56313c-0.18849,0.14986 -0.24936,0.42615 -0.36995,0.64391c-0.24819,0.29151 -0.64156,0.78439 -1.06771,0.98575c-0.14868,0.07259 -0.41209,0.17913 -0.57717,0.14166c-0.32195,-0.07375 -0.38751,-0.77502 -0.45073,-1.18829l0,-1.02439c0.33483,-2.64234 1.7362,-4.24273 3.43259,-5.55512c-0.2681,-0.72 0.05151,-1.53249 0.39102,-1.97152c-0.01288,-0.42263 0.144,-1.00565 0.4121,-1.28663c0.02341,-1.39668 0.42146,-2.52878 1.00683,-3.44078c1.056,-1.64956 2.25717,-2.99005 4.29893,-3.64332c2.03707,-0.65092 4.94517,-0.59239 6.82536,0.20254c1.00566,0.42146 1.80527,0.85698 2.46907,1.5079c1.04196,1.01854 1.64957,2.22673 2.07805,3.86342c0.06791,0.26341 0.12644,0.5397 0.16273,0.82536c0.03513,0.26459 0.04215,0.576 0.1241,0.84644c0.10303,0.33249 0.43551,0.63688 0.57483,1.04429c0.23766,0.68605 0.27044,1.41893 -0.06088,2.03239c0.64039,0.90381 1.22342,1.89191 1.78888,3.15864c0.45776,1.02673 0.84293,2.92332 0.30907,4.12683c-0.12995,0.29385 -0.4437,0.69892 -0.76097,0.70244c-0.3641,0.00702 -0.61815,-0.40859 -0.80078,-0.68254c-0.21776,-0.32078 -0.39688,-0.62517 -0.5561,-0.94712c-0.30439,0.3758 -0.41795,0.8839 -0.63688,1.34868c-0.31141,0.65327 -0.76214,1.22576 -1.25619,1.71161c0.54205,0.29737 1.15317,0.55961 1.64488,0.94478c0.31375,0.24586 0.73404,0.59122 0.61931,1.16839c-0.06556,0.31142 -0.34888,0.62283 -0.57717,0.78322c-1.53717,1.08878 -5.16761,0.94946 -7.19766,0.28332c-0.19434,-0.06556 -0.39687,-0.11825 -0.59707,-0.18264c-0.18498,-0.0597 -0.38049,-0.17443 -0.55493,-0.20019c-0.14517,-0.02459 -0.36995,-0.00937 -0.55492,-0.0199c-0.20254,-0.01522 -0.44137,-0.0562 -0.53503,-0.04098c-0.10185,0.01639 -0.24585,0.1522 -0.36995,0.22127c-0.86868,0.49171 -1.83688,0.88624 -3.10361,0.92488"/>
     </g>
     <g id="Group-3-Copy">
      <path fill="#00BB00" id="Fill-5-Copy" d="m210,25.891098c0,13.254 -10.7448,24 -24,24c-13.254,0 -24,-10.746 -24,-24c0,-13.2564 10.746,-24 24,-24c13.2552,0 24,10.7436 24,24l0,0z"/>
      <path fill="#FFFFFF" id="Page-1" d="m180.12806,19.345058c0,-0.37363 -0.11391,-0.67434 -0.34173,-0.90216c-0.22782,-0.22782 -0.52854,-0.34173 -0.90216,-0.34173c-0.39185,0 -0.73812,0.11619 -1.03885,0.34856c-0.30072,0.23238 -0.45107,0.53082 -0.45107,0.89533c0,0.35539 0.15035,0.64928 0.45107,0.88165c0.30073,0.23238 0.647,0.34856 1.03885,0.34856c0.37362,0 0.67434,-0.11163 0.90216,-0.33489c0.22782,-0.22326 0.34173,-0.5217 0.34173,-0.89532l0,0zm10.15611,6.93021c0,-0.25515 -0.11618,-0.48297 -0.34856,-0.68345c-0.23238,-0.20048 -0.53081,-0.30072 -0.89532,-0.30072c-0.24605,0 -0.47159,0.10252 -0.67662,0.30755c-0.20504,0.20504 -0.30756,0.43058 -0.30756,0.67662c0,0.25516 0.10252,0.48525 0.30756,0.69029c0.20503,0.20504 0.43057,0.30755 0.67662,0.30755c0.36451,0 0.66294,-0.10024 0.89532,-0.30071c0.23238,-0.20049 0.34856,-0.43286 0.34856,-0.69713l0,0zm-3.2259,-6.93021c0,-0.37363 -0.11163,-0.67434 -0.33489,-0.90216c-0.22326,-0.22782 -0.5217,-0.34173 -0.89532,-0.34173c-0.39185,0 -0.73813,0.11619 -1.03885,0.34856c-0.30072,0.23238 -0.45108,0.53082 -0.45108,0.89533c0,0.35539 0.15036,0.64928 0.45108,0.88165c0.30072,0.23238 0.647,0.34856 1.03885,0.34856c0.37362,0 0.67206,-0.11163 0.89532,-0.33489c0.22326,-0.22326 0.33489,-0.5217 0.33489,-0.89532l0,0zm8.67986,6.93021c0,-0.25515 -0.11847,-0.48297 -0.3554,-0.68345c-0.23693,-0.20048 -0.53309,-0.30072 -0.88849,-0.30072c-0.24604,0 -0.47158,0.10252 -0.67661,0.30755c-0.20504,0.20504 -0.30756,0.43058 -0.30756,0.67662c0,0.25516 0.10252,0.48525 0.30756,0.69029c0.20503,0.20504 0.43057,0.30755 0.67661,0.30755c0.3554,0 0.65156,-0.10024 0.88849,-0.30071c0.23693,-0.20049 0.3554,-0.43286 0.3554,-0.69713l0,0zm-3.63597,-5.42661c-0.2825,-0.03646 -0.60144,-0.05468 -0.95684,-0.05468c-1.54005,0 -2.95707,0.35083 -4.25108,1.05252c-1.29401,0.70168 -2.31234,1.65167 -3.05503,2.85c-0.74269,1.19832 -1.11403,2.50826 -1.11403,3.92985c0,0.7108 0.10479,1.40336 0.31439,2.0777c-0.31895,0.02734 -0.62878,0.04101 -0.9295,0.04101c-0.23693,0 -0.46475,-0.00684 -0.68345,-0.02051c-0.21871,-0.01367 -0.4693,-0.04328 -0.7518,-0.08885c-0.2825,-0.04556 -0.48525,-0.07745 -0.60827,-0.09568c-0.12302,-0.01822 -0.37135,-0.06607 -0.74497,-0.14353c-0.37362,-0.07745 -0.60144,-0.12529 -0.68345,-0.14352l-3.45827,1.73597l0.98417,-2.97986c-2.6427,-1.84988 -3.96403,-4.08248 -3.96403,-6.69784c0,-1.54005 0.44424,-2.95706 1.33273,-4.25107c0.8885,-1.29402 2.09136,-2.31235 3.60864,-3.05504c1.51727,-0.74269 3.17349,-1.11403 4.9687,-1.11403c1.60385,0 3.11882,0.30072 4.54496,0.90216c1.42615,0.60144 2.6199,1.43297 3.5813,2.4946c0.9614,1.06164 1.58333,2.24856 1.86583,3.5608l0,0zm8.09208,7.66834c0,1.06619 -0.3121,2.08453 -0.93633,3.05504c-0.62422,0.9705 -1.46942,1.85215 -2.53561,2.64496l0.7518,2.4741l-2.72015,-1.48993c-1.36691,0.33717 -2.36018,0.50576 -2.97985,0.50576c-1.54006,0 -2.95707,-0.32122 -4.25108,-0.96367c-1.29401,-0.64245 -2.31235,-1.51499 -3.05504,-2.61763c-0.74268,-1.10264 -1.11402,-2.3055 -1.11402,-3.60863c0,-1.30312 0.37134,-2.50599 1.11402,-3.60863c0.74269,-1.10265 1.76103,-1.97518 3.05504,-2.61763c1.29401,-0.64245 2.71102,-0.96367 4.25108,-0.96367c1.46715,0 2.84772,0.32122 4.14173,0.96367c1.29401,0.64245 2.33057,1.51726 3.10971,2.62446c0.77914,1.1072 1.1687,2.30779 1.1687,3.6018l0,0z"/>
     </g>
    </g>
   </g>
  </g>
 </g>
</svg>